<svg width="399.33331298828125" height="354" viewBox="0 0 400 354" fill="none" xmlns="http://www.w3.org/2000/svg">
<rect x="0.75" y="0.75" width="99.4583" height="88.125" stroke="#38363E" stroke-width="1.5"/>
<rect x="100.211" y="0.75" width="99.4583" height="88.125" stroke="#38363E" stroke-width="1.5"/>
<rect x="199.664" y="0.75" width="99.4583" height="88.125" stroke="#38363E" stroke-width="1.5"/>
<rect x="299.125" y="0.75" width="99.4583" height="88.125" stroke="#38363E" stroke-width="1.5"/>
<rect x="0.75" y="88.875" width="99.4583" height="88.125" stroke="#38363E" stroke-width="1.5"/>
<rect x="100.211" y="88.875" width="99.4583" height="88.125" stroke="#38363E" stroke-width="1.5"/>
<rect x="199.664" y="88.875" width="99.4583" height="88.125" stroke="#38363E" stroke-width="1.5"/>
<rect x="299.125" y="88.875" width="99.4583" height="88.125" stroke="#38363E" stroke-width="1.5"/>
<rect x="0.75" y="177" width="99.4583" height="88.125" stroke="#38363E" stroke-width="1.5"/>
<rect x="100.211" y="177" width="99.4583" height="88.125" stroke="#38363E" stroke-width="1.5"/>
<rect x="199.664" y="177" width="99.4583" height="88.125" stroke="#38363E" stroke-width="1.5"/>
<rect x="299.125" y="177" width="99.4583" height="88.125" stroke="#38363E" stroke-width="1.5"/>
<rect x="0.75" y="265.125" width="99.4583" height="88.125" stroke="#38363E" stroke-width="1.5"/>
<rect x="100.211" y="265.125" width="99.4583" height="88.125" stroke="#38363E" stroke-width="1.5"/>
<rect x="199.664" y="265.125" width="99.4583" height="88.125" stroke="#38363E" stroke-width="1.5"/>
<rect x="299.125" y="265.125" width="99.4583" height="88.125" stroke="#38363E" stroke-width="1.5"/>
</svg>
